# xmcd
#
# Track frame offsets: 
#        150
#        19127
#        36167
#        48565
#
# Disc length: 901 seconds
#
# Revision: 0
# Processed by: cddbd v1.5.2PL0 Copyright (c) Steve Scherf et al.
# Submitted via: ExactAudioCopyFreeDBPlugin 1.0
#
DISCID=2d038304
DTITLE=大西ユカリと新世界 - ちょっとまちがえた [Maxi]
DYEAR=2006
DGENRE=Blues
TTITLE0=ちょっとまちがえた
TTITLE1=ルンバでブンブン
TTITLE2=通天閣ブルース
TTITLE3=ちょっとまちがえた(カラオケ)
EXTD=
EXTT0=
EXTT1=
EXTT2=
EXTT3=
PLAYORDER=
